<?xml version="1.0" encoding="UTF-8" standalone="no"?>
<svg width="400" height="300" viewBox="0 0 400 300" fill="none" xmlns="http://www.w3.org/2000/svg">
  <rect width="400" height="300" fill="#F3F4FF"/>
  <rect x="50" y="50" width="300" height="200" rx="10" fill="#E0E7FF"/>
  
  <!-- Brain Icon -->
  <path d="M200 90C177.909 90 160 107.909 160 130C160 152.091 177.909 170 200 170C222.091 170 240 152.091 240 130C240 107.909 222.091 90 200 90Z" fill="#818CF8"/>
  <path d="M200 100C183.431 100 170 113.431 170 130C170 146.569 183.431 160 200 160C216.569 160 230 146.569 230 130C230 113.431 216.569 100 200 100Z" fill="#C7D2FE"/>
  
  <!-- Neural Network Lines -->
  <line x1="180" y1="130" x2="150" y2="110" stroke="#818CF8" stroke-width="2"/>
  <line x1="180" y1="130" x2="150" y2="150" stroke="#818CF8" stroke-width="2"/>
  <line x1="220" y1="130" x2="250" y2="110" stroke="#818CF8" stroke-width="2"/>
  <line x1="220" y1="130" x2="250" y2="150" stroke="#818CF8" stroke-width="2"/>
  
  <!-- Neural Network Nodes -->
  <circle cx="150" cy="110" r="5" fill="#6366F1"/>
  <circle cx="150" cy="150" r="5" fill="#6366F1"/>
  <circle cx="250" cy="110" r="5" fill="#6366F1"/>
  <circle cx="250" cy="150" r="5" fill="#6366F1"/>
  
  <!-- Text Elements -->
  <rect x="100" y="190" width="200" height="10" rx="5" fill="#A5B4FC"/>
  <rect x="120" y="210" width="160" height="10" rx="5" fill="#A5B4FC"/>
  <rect x="140" y="230" width="120" height="10" rx="5" fill="#A5B4FC"/>
  
  <!-- AI Learning Hub Text -->
  <text x="200" y="70" font-family="Arial" font-size="16" font-weight="bold" fill="#4F46E5" text-anchor="middle">AI Learning Hub</text>
</svg>
