<?xml version="1.0" encoding="UTF-8" standalone="no"?>
<svg width="1440" height="800" viewBox="0 0 1440 800" fill="none" xmlns="http://www.w3.org/2000/svg">
  <!-- Background gradient -->
  <rect width="1440" height="800" fill="url(#paint0_linear)"/>
  
  <!-- Colorful circles -->
  <circle cx="100" cy="100" r="80" fill="#3b82f6" opacity="0.2"/>
  <circle cx="400" cy="200" r="120" fill="#d946ef" opacity="0.15"/>
  <circle cx="700" cy="100" r="90" fill="#10b981" opacity="0.2"/>
  <circle cx="1000" cy="200" r="100" fill="#f97316" opacity="0.15"/>
  <circle cx="1300" cy="100" r="70" fill="#3b82f6" opacity="0.2"/>
  
  <circle cx="200" cy="500" r="110" fill="#10b981" opacity="0.15"/>
  <circle cx="500" cy="600" r="80" fill="#3b82f6" opacity="0.2"/>
  <circle cx="800" cy="500" r="120" fill="#f97316" opacity="0.15"/>
  <circle cx="1100" cy="600" r="90" fill="#d946ef" opacity="0.2"/>
  <circle cx="1350" cy="500" r="100" fill="#10b981" opacity="0.15"/>
  
  <!-- Wavy lines -->
  <path d="M0 300 Q 200 250, 400 300 Q 600 350, 800 300 Q 1000 250, 1200 300 Q 1400 350, 1600 300" stroke="#3b82f6" stroke-width="3" opacity="0.3" fill="none"/>
  <path d="M0 320 Q 200 270, 400 320 Q 600 370, 800 320 Q 1000 270, 1200 320 Q 1400 370, 1600 320" stroke="#d946ef" stroke-width="2" opacity="0.3" fill="none"/>
  <path d="M0 340 Q 200 290, 400 340 Q 600 390, 800 340 Q 1000 290, 1200 340 Q 1400 390, 1600 340" stroke="#10b981" stroke-width="3" opacity="0.3" fill="none"/>
  
  <!-- Dots pattern -->
  <g opacity="0.2">
    <circle cx="100" cy="400" r="2" fill="#3b82f6"/>
    <circle cx="120" cy="400" r="2" fill="#3b82f6"/>
    <circle cx="140" cy="400" r="2" fill="#3b82f6"/>
    <circle cx="160" cy="400" r="2" fill="#3b82f6"/>
    <circle cx="180" cy="400" r="2" fill="#3b82f6"/>
    
    <circle cx="100" cy="420" r="2" fill="#3b82f6"/>
    <circle cx="120" cy="420" r="2" fill="#3b82f6"/>
    <circle cx="140" cy="420" r="2" fill="#3b82f6"/>
    <circle cx="160" cy="420" r="2" fill="#3b82f6"/>
    <circle cx="180" cy="420" r="2" fill="#3b82f6"/>
    
    <circle cx="100" cy="440" r="2" fill="#3b82f6"/>
    <circle cx="120" cy="440" r="2" fill="#3b82f6"/>
    <circle cx="140" cy="440" r="2" fill="#3b82f6"/>
    <circle cx="160" cy="440" r="2" fill="#3b82f6"/>
    <circle cx="180" cy="440" r="2" fill="#3b82f6"/>
  </g>
  
  <g opacity="0.2">
    <circle cx="1200" cy="200" r="2" fill="#d946ef"/>
    <circle cx="1220" cy="200" r="2" fill="#d946ef"/>
    <circle cx="1240" cy="200" r="2" fill="#d946ef"/>
    <circle cx="1260" cy="200" r="2" fill="#d946ef"/>
    <circle cx="1280" cy="200" r="2" fill="#d946ef"/>
    
    <circle cx="1200" cy="220" r="2" fill="#d946ef"/>
    <circle cx="1220" cy="220" r="2" fill="#d946ef"/>
    <circle cx="1240" cy="220" r="2" fill="#d946ef"/>
    <circle cx="1260" cy="220" r="2" fill="#d946ef"/>
    <circle cx="1280" cy="220" r="2" fill="#d946ef"/>
    
    <circle cx="1200" cy="240" r="2" fill="#d946ef"/>
    <circle cx="1220" cy="240" r="2" fill="#d946ef"/>
    <circle cx="1240" cy="240" r="2" fill="#d946ef"/>
    <circle cx="1260" cy="240" r="2" fill="#d946ef"/>
    <circle cx="1280" cy="240" r="2" fill="#d946ef"/>
  </g>
  
  <!-- Gradient definitions -->
  <defs>
    <linearGradient id="paint0_linear" x1="0" y1="0" x2="1440" y2="800" gradientUnits="userSpaceOnUse">
      <stop offset="0" stop-color="#0f172a"/>
      <stop offset="1" stop-color="#1e293b"/>
    </linearGradient>
  </defs>
</svg>
