<svg xmlns="http://www.w3.org/2000/svg" width="32" height="32" viewBox="0 0 32 32" fill="none">
  <rect width="32" height="32" rx="8" fill="url(#paint0_linear)" />
  <path d="M6.55 3.544c2.767-.36 5.587-.544 8.45-.544 2.863 0 5.683.185 8.45.544 2.562.333 4.387 2.481 4.54 4.969a5.87 5.87 0 00-1.377-.281 67.853 67.853 0 00-11.227 0c-3.143.261-5.386 2.92-5.386 5.912v5.715a5.96 5.96 0 003.244 5.312l-3.244 3.244a1 1 0 01-1.707-.707v-5.373a64.703 64.703 0 01-1.45-.171C3.873 22.107 2 19.777 2 17.15V8.85c0-2.627 1.873-4.957 4.55-5.306z" fill="white" />
  <path d="M21 10c-1.835 0-3.652.076-5.448.225C13.499 10.396 12 12.137 12 14.145v5.714c0 2.01 1.504 3.752 3.56 3.92 1.657.136 3.333.21 5.024.22l3.71 3.708a1 1 0 001.706-.707v-3.186l.44-.035c2.056-.167 3.56-1.91 3.56-3.92v-5.714c0-2.007-1.5-3.748-3.552-3.92A65.856 65.856 0 0021 10z" fill="white" />
  <defs>
    <linearGradient id="paint0_linear" x1="0" y1="0" x2="32" y2="32" gradientUnits="userSpaceOnUse">
      <stop stop-color="#6366F1" />
      <stop offset="1" stop-color="#D946EF" />
    </linearGradient>
  </defs>
</svg>
