<?xml version="1.0" encoding="UTF-8" standalone="no"?>
<svg width="600" height="300" viewBox="0 0 600 300" fill="none" xmlns="http://www.w3.org/2000/svg">
  <!-- Background -->
  <rect width="600" height="300" fill="#F8FAFC"/>
  
  <!-- Eiffel Tower -->
  <g transform="translate(50, 50)">
    <path d="M40 200 L60 200 L55 180 L45 180 Z" fill="#64748B"/>
    <path d="M45 180 L55 180 L52 150 L48 150 Z" fill="#64748B"/>
    <path d="M48 150 L52 150 L51 100 L49 100 Z" fill="#64748B"/>
    <path d="M49 100 L51 100 L50 50 L50 50 Z" fill="#64748B"/>
    <path d="M50 50 L50 40 L50 40 L50 50 Z" fill="#64748B"/>
    <path d="M35 200 L65 200 L60 210 L40 210 Z" fill="#475569"/>
    <line x1="40" y1="190" x2="60" y2="190" stroke="#94A3B8" stroke-width="1"/>
    <line x1="42" y1="170" x2="58" y2="170" stroke="#94A3B8" stroke-width="1"/>
    <line x1="45" y1="140" x2="55" y2="140" stroke="#94A3B8" stroke-width="1"/>
    <line x1="47" y1="120" x2="53" y2="120" stroke="#94A3B8" stroke-width="1"/>
    <line x1="48" y1="80" x2="52" y2="80" stroke="#94A3B8" stroke-width="1"/>
    <text x="50" y="230" font-family="Arial" font-size="10" fill="#334155" text-anchor="middle">Paris</text>
  </g>
  
  <!-- Statue of Liberty -->
  <g transform="translate(150, 50)">
    <rect x="45" y="160" width="10" height="40" fill="#64748B"/>
    <path d="M35 160 L65 160 L60 140 L40 140 Z" fill="#64748B"/>
    <rect x="40" y="120" width="20" height="20" fill="#64748B"/>
    <circle cx="50" cy="110" r="10" fill="#94A3B8"/>
    <path d="M50 100 L45 90 L55 90 Z" fill="#94A3B8"/>
    <rect x="48" y="70" width="4" height="20" fill="#94A3B8"/>
    <circle cx="50" cy="65" r="5" fill="#FBBF24"/>
    <path d="M30 200 L70 200 L65 210 L35 210 Z" fill="#475569"/>
    <text x="50" y="230" font-family="Arial" font-size="10" fill="#334155" text-anchor="middle">New York</text>
  </g>
  
  <!-- Taj Mahal -->
  <g transform="translate(250, 50)">
    <rect x="30" y="160" width="40" height="40" fill="#F1F5F9"/>
    <path d="M30 160 L70 160 L50 130 Z" fill="#E2E8F0"/>
    <rect x="45" y="160" width="10" height="20" fill="#CBD5E1"/>
    <path d="M20 200 L80 200 L75 210 L25 210 Z" fill="#94A3B8"/>
    <path d="M25 160 L30 160 L30 200 L25 200 Z" fill="#CBD5E1"/>
    <path d="M70 160 L75 160 L75 200 L70 200 Z" fill="#CBD5E1"/>
    <circle cx="50" cy="120" r="5" fill="#E2E8F0"/>
    <text x="50" y="230" font-family="Arial" font-size="10" fill="#334155" text-anchor="middle">Agra</text>
  </g>
  
  <!-- Pagoda -->
  <g transform="translate(350, 50)">
    <path d="M40 200 L60 200 L58 180 L42 180 Z" fill="#7C2D12"/>
    <path d="M42 180 L58 180 L56 160 L44 160 Z" fill="#92400E"/>
    <path d="M44 160 L56 160 L54 140 L46 140 Z" fill="#B45309"/>
    <path d="M46 140 L54 140 L52 120 L48 120 Z" fill="#D97706"/>
    <path d="M48 120 L52 120 L50 100 L50 100 Z" fill="#F59E0B"/>
    <path d="M35 200 L65 200 L60 210 L40 210 Z" fill="#7C2D12"/>
    <text x="50" y="230" font-family="Arial" font-size="10" fill="#334155" text-anchor="middle">Tokyo</text>
  </g>
  
  <!-- Pyramid -->
  <g transform="translate(450, 50)">
    <path d="M30 200 L70 200 L50 140 Z" fill="#FBBF24"/>
    <path d="M25 200 L75 200 L70 210 L30 210 Z" fill="#D97706"/>
    <line x1="40" y1="180" x2="60" y2="180" stroke="#F59E0B" stroke-width="1"/>
    <line x1="45" y1="170" x2="55" y2="170" stroke="#F59E0B" stroke-width="1"/>
    <line x1="47" y1="160" x2="53" y2="160" stroke="#F59E0B" stroke-width="1"/>
    <text x="50" y="230" font-family="Arial" font-size="10" fill="#334155" text-anchor="middle">Cairo</text>
  </g>
  
  <!-- Colosseum -->
  <g transform="translate(550, 50)">
    <ellipse cx="0" cy="180" rx="30" ry="20" fill="#E2E8F0"/>
    <ellipse cx="0" cy="180" rx="25" ry="15" fill="#F8FAFC"/>
    <path d="M-25 180 L-25 160 A 25 15 0 0 1 25 160 L25 180" stroke="#CBD5E1" stroke-width="2" fill="none"/>
    <path d="M-20 180 L-20 165 M-10 180 L-10 163 M0 180 L0 162 M10 180 L10 163 M20 180 L20 165" stroke="#94A3B8" stroke-width="2"/>
    <path d="M-30 200 L30 200 L25 210 L-25 210 Z" fill="#94A3B8"/>
    <text x="0" y="230" font-family="Arial" font-size="10" fill="#334155" text-anchor="middle">Rome</text>
  </g>
</svg>
