<?xml version="1.0" encoding="UTF-8" standalone="no"?>
<svg width="800" height="500" viewBox="0 0 800 500" fill="none" xmlns="http://www.w3.org/2000/svg">
  <!-- Sky background -->
  <rect width="800" height="500" fill="url(#sky_gradient)"/>
  
  <!-- Mountains -->
  <path d="M0 200 L150 80 L250 150 L350 90 L450 170 L550 100 L650 160 L800 120 L800 500 L0 500 Z" fill="#4B5563"/>
  <path d="M0 250 L150 150 L250 200 L350 140 L450 220 L550 170 L650 230 L800 180 L800 500 L0 500 Z" fill="#374151"/>
  <path d="M0 300 L150 240 L250 270 L350 230 L450 280 L550 250 L650 290 L800 260 L800 500 L0 500 Z" fill="#1F2937"/>
  
  <!-- Lake -->
  <path d="M0 350 L800 350 L800 500 L0 500 Z" fill="url(#water_gradient)"/>
  
  <!-- Sun -->
  <circle cx="650" cy="100" r="60" fill="url(#sun_gradient)"/>
  
  <!-- Clouds -->
  <g opacity="0.8">
    <ellipse cx="150" cy="100" rx="50" ry="30" fill="white"/>
    <ellipse cx="200" cy="100" rx="40" ry="25" fill="white"/>
    <ellipse cx="100" cy="100" rx="40" ry="25" fill="white"/>
  </g>
  
  <g opacity="0.7">
    <ellipse cx="450" cy="80" rx="40" ry="25" fill="white"/>
    <ellipse cx="490" cy="80" rx="30" ry="20" fill="white"/>
    <ellipse cx="410" cy="80" rx="30" ry="20" fill="white"/>
  </g>
  
  <!-- Trees on mountains -->
  <g>
    <path d="M100 250 L120 210 L140 250 Z" fill="#065F46"/>
    <path d="M110 210 L130 170 L150 210 Z" fill="#065F46"/>
    <rect x="118" y="250" width="4" height="15" fill="#7C2D12"/>
  </g>
  
  <g>
    <path d="M200 270 L220 230 L240 270 Z" fill="#065F46"/>
    <path d="M210 230 L230 190 L250 230 Z" fill="#065F46"/>
    <rect x="218" y="270" width="4" height="15" fill="#7C2D12"/>
  </g>
  
  <g>
    <path d="M500 280 L520 240 L540 280 Z" fill="#065F46"/>
    <path d="M510 240 L530 200 L550 240 Z" fill="#065F46"/>
    <rect x="518" y="280" width="4" height="15" fill="#7C2D12"/>
  </g>
  
  <g>
    <path d="M600 290 L620 250 L640 290 Z" fill="#065F46"/>
    <path d="M610 250 L630 210 L650 250 Z" fill="#065F46"/>
    <rect x="618" y="290" width="4" height="15" fill="#7C2D12"/>
  </g>
  
  <!-- Boats -->
  <g transform="translate(300, 400)">
    <path d="M0 0 L60 0 L70 -15 L-10 -15 Z" fill="#3B82F6"/>
    <path d="M25 -15 L35 -15 L35 -40 L25 -40 Z" fill="#3B82F6"/>
    <path d="M25 -40 L35 -40 L30 -55 Z" fill="#3B82F6"/>
    <path d="M35 -40 L35 -15 L60 -30 Z" fill="#F9FAFB"/>
  </g>
  
  <g transform="translate(500, 420)">
    <path d="M0 0 L40 0 L50 -10 L-10 -10 Z" fill="#D946EF"/>
    <path d="M15 -10 L25 -10 L25 -25 L15 -25 Z" fill="#D946EF"/>
    <path d="M15 -25 L25 -25 L20 -35 Z" fill="#D946EF"/>
    <path d="M25 -25 L25 -10 L40 -20 Z" fill="#F9FAFB"/>
  </g>
  
  <!-- Water ripples -->
  <path d="M250 380 Q 300 375, 350 380 Q 400 385, 450 380 Q 500 375, 550 380" stroke="#E0F2FE" stroke-width="1.5" opacity="0.6" fill="none"/>
  <path d="M200 400 Q 250 395, 300 400 Q 350 405, 400 400 Q 450 395, 500 400" stroke="#E0F2FE" stroke-width="1.5" opacity="0.6" fill="none"/>
  <path d="M300 420 Q 350 415, 400 420 Q 450 425, 500 420 Q 550 415, 600 420" stroke="#E0F2FE" stroke-width="1.5" opacity="0.6" fill="none"/>
  
  <!-- Beach -->
  <path d="M0 450 Q 100 430, 200 450 Q 300 470, 400 450 Q 500 430, 600 450 Q 700 470, 800 450 L800 500 L0 500 Z" fill="#FBBF24" opacity="0.7"/>
  
  <!-- Palm trees -->
  <g transform="translate(150, 460)">
    <rect x="-5" y="0" width="10" height="40" fill="#7C2D12"/>
    <path d="M0 0 Q -20 -20, -40 -10 Q -30 -30, -10 -40 Q 0 -60, 10 -40 Q 30 -30, 40 -10 Q 20 -20, 0 0" fill="#065F46"/>
  </g>
  
  <g transform="translate(700, 460)">
    <rect x="-5" y="0" width="10" height="40" fill="#7C2D12"/>
    <path d="M0 0 Q -20 -20, -40 -10 Q -30 -30, -10 -40 Q 0 -60, 10 -40 Q 30 -30, 40 -10 Q 20 -20, 0 0" fill="#065F46"/>
  </g>
  
  <!-- Gradients -->
  <defs>
    <linearGradient id="sky_gradient" x1="0" y1="0" x2="0" y2="350" gradientUnits="userSpaceOnUse">
      <stop offset="0" stop-color="#60A5FA"/>
      <stop offset="1" stop-color="#93C5FD"/>
    </linearGradient>
    
    <linearGradient id="water_gradient" x1="0" y1="350" x2="0" y2="500" gradientUnits="userSpaceOnUse">
      <stop offset="0" stop-color="#0EA5E9"/>
      <stop offset="1" stop-color="#0284C7"/>
    </linearGradient>
    
    <radialGradient id="sun_gradient" cx="650" cy="100" r="60" gradientUnits="userSpaceOnUse">
      <stop offset="0" stop-color="#FBBF24"/>
      <stop offset="1" stop-color="#F59E0B"/>
    </radialGradient>
  </defs>
</svg>
