<?xml version="1.0" encoding="UTF-8" standalone="no"?>
<svg width="600" height="400" viewBox="0 0 600 400" fill="none" xmlns="http://www.w3.org/2000/svg">
  <!-- Sky background -->
  <rect width="600" height="400" fill="url(#sky_gradient)"/>
  
  <!-- Mountains -->
  <path d="M0 200 L100 100 L200 180 L300 80 L400 150 L500 90 L600 180 L600 400 L0 400 Z" fill="#4B5563"/>
  <path d="M0 220 L100 140 L200 200 L300 120 L400 190 L500 130 L600 220 L600 400 L0 400 Z" fill="#374151"/>
  
  <!-- Lake -->
  <path d="M0 280 L600 280 L600 400 L0 400 Z" fill="url(#water_gradient)"/>
  
  <!-- Sun -->
  <circle cx="500" cy="80" r="40" fill="url(#sun_gradient)"/>
  
  <!-- Boat -->
  <g transform="translate(250, 320)">
    <path d="M0 0 L40 0 L50 -10 L-10 -10 Z" fill="#7C3AED"/>
    <path d="M15 -10 L25 -10 L25 -25 L15 -25 Z" fill="#7C3AED"/>
    <path d="M15 -25 L25 -25 L20 -35 Z" fill="#7C3AED"/>
    <path d="M25 -25 L25 -10 L40 -20 Z" fill="#F9FAFB"/>
  </g>
  
  <!-- Trees on mountains -->
  <g>
    <path d="M50 200 L60 180 L70 200 Z" fill="#065F46"/>
    <path d="M55 180 L65 160 L75 180 Z" fill="#065F46"/>
    <path d="M60 160 L70 140 L80 160 Z" fill="#065F46"/>
    <rect x="65" y="200" width="5" height="10" fill="#7C2D12"/>
  </g>
  
  <g>
    <path d="M150 180 L160 160 L170 180 Z" fill="#065F46"/>
    <path d="M155 160 L165 140 L175 160 Z" fill="#065F46"/>
    <rect x="162" y="180" width="5" height="10" fill="#7C2D12"/>
  </g>
  
  <g>
    <path d="M350 150 L360 130 L370 150 Z" fill="#065F46"/>
    <path d="M355 130 L365 110 L375 130 Z" fill="#065F46"/>
    <path d="M360 110 L370 90 L380 110 Z" fill="#065F46"/>
    <rect x="365" y="150" width="5" height="10" fill="#7C2D12"/>
  </g>
  
  <g>
    <path d="M450 190 L460 170 L470 190 Z" fill="#065F46"/>
    <path d="M455 170 L465 150 L475 170 Z" fill="#065F46"/>
    <rect x="462" y="190" width="5" height="10" fill="#7C2D12"/>
  </g>
  
  <!-- Clouds -->
  <g opacity="0.8">
    <ellipse cx="100" cy="70" rx="30" ry="20" fill="white"/>
    <ellipse cx="130" cy="70" rx="25" ry="15" fill="white"/>
    <ellipse cx="70" cy="70" rx="25" ry="15" fill="white"/>
  </g>
  
  <g opacity="0.8">
    <ellipse cx="400" cy="60" rx="30" ry="20" fill="white"/>
    <ellipse cx="430" cy="60" rx="25" ry="15" fill="white"/>
    <ellipse cx="370" cy="60" rx="25" ry="15" fill="white"/>
  </g>
  
  <!-- Reflections in water -->
  <path d="M250 320 L290 320 L270 340 Z" fill="#7C3AED" opacity="0.3"/>
  <path d="M265 320 L275 320 L270 330 Z" fill="#7C3AED" opacity="0.3"/>
  
  <!-- Water ripples -->
  <path d="M200 300 Q 220 295, 240 300 Q 260 305, 280 300 Q 300 295, 320 300" stroke="#E0F2FE" stroke-width="1" opacity="0.5" fill="none"/>
  <path d="M220 310 Q 240 305, 260 310 Q 280 315, 300 310 Q 320 305, 340 310" stroke="#E0F2FE" stroke-width="1" opacity="0.5" fill="none"/>
  <path d="M240 320 Q 260 315, 280 320 Q 300 325, 320 320 Q 340 315, 360 320" stroke="#E0F2FE" stroke-width="1" opacity="0.5" fill="none"/>
  
  <!-- Gradients -->
  <defs>
    <linearGradient id="sky_gradient" x1="0" y1="0" x2="0" y2="280" gradientUnits="userSpaceOnUse">
      <stop offset="0" stop-color="#60A5FA"/>
      <stop offset="1" stop-color="#93C5FD"/>
    </linearGradient>
    
    <linearGradient id="water_gradient" x1="0" y1="280" x2="0" y2="400" gradientUnits="userSpaceOnUse">
      <stop offset="0" stop-color="#0EA5E9"/>
      <stop offset="1" stop-color="#0284C7"/>
    </linearGradient>
    
    <radialGradient id="sun_gradient" cx="500" cy="80" r="40" gradientUnits="userSpaceOnUse">
      <stop offset="0" stop-color="#FBBF24"/>
      <stop offset="1" stop-color="#F59E0B"/>
    </radialGradient>
  </defs>
</svg>
